<svg xmlns="http://www.w3.org/2000/svg" xmlns:xlink="http://www.w3.org/1999/xlink" width="2000" zoomAndPan="magnify" viewBox="0 0 1500 1499.999933" height="2000" preserveAspectRatio="xMidYMid meet" version="1.0"><defs><clipPath id="e22416fb01"><path d="M 40.988281 152 L 696 152 L 696 601 L 40.988281 601 Z M 40.988281 152 " clip-rule="nonzero"/></clipPath></defs><g clip-path="url(#e22416fb01)"><path fill="#ff7870" d="M 693.367188 564.566406 C 666.53125 533.835938 638.511719 506.035156 609.320312 481.164062 C 591.496094 465.949219 570.199219 450.371094 545.402344 434.433594 C 529.550781 424.21875 507.492188 409.730469 479.246094 390.972656 C 442.03125 366.183594 385.941406 337.25 310.976562 304.167969 C 310.976562 304.132812 310.941406 304.105469 310.90625 304.109375 C 310.871094 304.109375 310.847656 304.140625 310.847656 304.167969 L 307.644531 306.34375 C 306.800781 306.925781 306.589844 308.089844 307.167969 308.933594 C 307.324219 309.160156 307.53125 309.351562 307.773438 309.484375 C 335.382812 325.855469 377.304688 349.890625 433.550781 381.605469 C 470.773438 402.636719 504.898438 427.699219 535.925781 456.804688 C 544 464.410156 562.546875 481.230469 591.566406 507.257812 C 618.445312 531.40625 641.585938 558.070312 660.992188 587.261719 C 530.175781 615.941406 406.515625 596.257812 290.011719 528.222656 C 232.789062 494.839844 187.894531 457.597656 155.328125 416.488281 C 99.089844 345.410156 60.988281 266.988281 41.03125 181.21875 C 40.824219 180.234375 41.414062 179.253906 42.375 178.980469 C 175.585938 140.066406 314.636719 141.414062 444.894531 197.3125 C 559.425781 246.417969 637.828125 326.699219 680.101562 438.15625 C 693.769531 474.308594 698.195312 516.445312 693.367188 564.566406 Z M 693.367188 564.566406 " fill-opacity="1" fill-rule="nonzero"/></g><path fill="#ff7870" d="M 814.976562 704.699219 C 859.636719 657.132812 908.210938 613.351562 960.691406 573.351562 C 989.328125 551.554688 1016.25 534.121094 1041.460938 521.039062 C 1107.660156 486.679688 1157 461.164062 1189.480469 444.496094 C 1189.777344 444.367188 1190.074219 444.238281 1190.378906 444.113281 C 1200.769531 440.652344 1209.957031 436.632812 1217.945312 432.058594 C 1218.394531 431.796875 1218.570312 431.214844 1218.34375 430.761719 C 1218.152344 430.371094 1217.71875 430.195312 1217.300781 430.328125 C 1197.746094 434.753906 1179.285156 443.539062 1163.898438 449.109375 C 1100.097656 472.230469 1058.511719 489.644531 1039.148438 501.355469 C 999.617188 525.242188 965.964844 544.863281 938.179688 560.203125 C 911.167969 575.121094 886.445312 591.832031 864.011719 610.339844 C 839.011719 630.933594 814.222656 653.4375 789.648438 677.84375 C 788.070312 627.15625 796.789062 581.445312 815.804688 540.722656 C 844.65625 478.859375 890.8125 419.820312 949.914062 379.175781 C 1038.9375 318.015625 1136.972656 287.675781 1244.03125 288.144531 C 1310.378906 288.398438 1390.960938 305.835938 1453.976562 328.847656 C 1457.796875 330.238281 1459.859375 334.386719 1458.65625 338.269531 C 1450.0625 366.261719 1437.15625 397.585938 1419.9375 432.25 C 1350.617188 571.832031 1240.65625 663.605469 1090.050781 707.585938 C 1002.402344 733.144531 910.707031 732.183594 814.976562 704.699219 Z M 814.976562 704.699219 " fill-opacity="1" fill-rule="nonzero"/><path fill="#2c2c2a" d="M 693.367188 564.566406 C 728.964844 602.605469 752.277344 649.035156 763.304688 703.863281 C 763.648438 705.488281 765.257812 706.523438 766.882812 706.175781 C 767.570312 706.027344 768.1875 705.636719 768.621094 705.082031 L 789.648438 677.835938 C 814.222656 653.433594 839.011719 630.933594 864.011719 610.332031 C 886.449219 591.828125 911.171875 575.117188 938.179688 560.199219 C 965.957031 544.855469 999.613281 525.238281 1039.148438 501.351562 C 1058.511719 489.636719 1100.089844 472.222656 1163.898438 449.101562 C 1179.285156 443.523438 1197.746094 434.746094 1217.300781 430.320312 C 1217.785156 430.164062 1218.28125 430.441406 1218.40625 430.9375 C 1218.515625 431.363281 1218.324219 431.824219 1217.941406 432.050781 C 1209.949219 436.625 1200.761719 440.644531 1190.375 444.105469 C 1190.074219 444.234375 1189.777344 444.359375 1189.472656 444.488281 C 1156.992188 461.15625 1107.652344 486.667969 1041.453125 521.03125 C 1016.242188 534.105469 989.3125 551.546875 960.683594 573.34375 C 908.203125 613.34375 859.628906 657.125 814.96875 704.695312 C 807.53125 721.320312 799.433594 737.839844 790.671875 754.246094 C 778.171875 777.769531 779.199219 793.992188 779.0625 826.238281 C 778.722656 906.03125 779.171875 985.800781 780.410156 1065.542969 C 779.253906 1066.785156 777.886719 1067.847656 776.304688 1068.746094 C 774.640625 1069.691406 772.953125 1070.117188 771.242188 1070.03125 C 760.601562 1069.476562 749.789062 1069.308594 738.804688 1069.519531 C 737.628906 1069.5625 736.460938 1069.320312 735.410156 1068.820312 L 728.164062 1065.488281 C 727.867188 1058.652344 727.738281 1051.789062 727.78125 1044.910156 C 728.765625 920.976562 728.574219 830.710938 727.207031 774.125 C 725.5 705.960938 703.425781 643.667969 660.984375 587.261719 C 641.582031 558.070312 618.4375 531.40625 591.558594 507.257812 C 562.539062 481.230469 543.992188 464.410156 535.917969 456.804688 C 504.890625 427.699219 470.765625 402.636719 433.542969 381.605469 C 377.296875 349.890625 335.375 325.855469 307.765625 309.484375 C 306.878906 308.976562 306.566406 307.832031 307.085938 306.949219 C 307.21875 306.707031 307.410156 306.5 307.636719 306.34375 L 310.84375 304.167969 C 310.84375 304.132812 310.878906 304.105469 310.914062 304.109375 C 310.949219 304.109375 310.96875 304.140625 310.96875 304.167969 C 385.941406 337.25 442.03125 366.183594 479.253906 390.972656 C 507.5 409.730469 529.558594 424.222656 545.410156 434.433594 C 570.199219 450.371094 591.503906 465.949219 609.328125 481.164062 C 638.515625 506.035156 666.53125 533.835938 693.367188 564.566406 Z M 693.367188 564.566406 " fill-opacity="1" fill-rule="nonzero"/><path fill="#38b6ff" d="M 728.179688 1065.484375 L 735.425781 1068.820312 C 736.480469 1069.320312 737.644531 1069.5625 738.820312 1069.519531 C 749.804688 1069.308594 760.617188 1069.476562 771.257812 1070.03125 C 772.964844 1070.117188 774.652344 1069.691406 776.320312 1068.746094 C 777.902344 1067.847656 779.269531 1066.785156 780.425781 1065.542969 L 782.28125 1066.953125 C 783.367188 1067.789062 784.707031 1068.300781 786.125 1068.429688 C 864.847656 1074.007812 946.199219 1105.035156 1003.636719 1158.046875 C 1007.03125 1161.195312 1011.40625 1163.074219 1016.007812 1163.363281 C 1128.511719 1171.25 1225.953125 1220.863281 1296.40625 1307.023438 C 1305.851562 1318.566406 1313.96875 1331.003906 1320.765625 1344.332031 C 1321.371094 1345.496094 1320.917969 1346.925781 1319.753906 1347.53125 C 1319.414062 1347.707031 1319.039062 1347.800781 1318.65625 1347.792969 L 189.941406 1347.792969 C 188.667969 1347.761719 187.652344 1346.714844 187.679688 1345.4375 C 187.6875 1345.078125 187.78125 1344.714844 187.957031 1344.394531 C 246.101562 1237.015625 375.46875 1171.441406 492.84375 1162.910156 C 497.460938 1162.578125 501.847656 1160.753906 505.34375 1157.722656 C 567.609375 1104.042969 640.375 1074.277344 723.625 1068.421875 C 724.691406 1068.34375 725.667969 1067.804688 726.320312 1066.945312 C 726.875 1066.238281 727.492188 1065.742188 728.179688 1065.484375 Z M 728.179688 1065.484375 " fill-opacity="1" fill-rule="nonzero"/><path stroke-linecap="butt" transform="matrix(0.667448, 0.342072, -0.342072, 0.667448, 306.125983, 372.567428)" fill="none" stroke-linejoin="miter" d="M -0.00143745 0.502522 L 157.050533 0.502 " stroke="#ff7870" stroke-width="1" stroke-opacity="1" stroke-miterlimit="4"/></svg>